<mxfile host="app.diagrams.net" modified="2023-12-31T12:17:50.209Z" agent="Mozilla/5.0 (X11; Linux x86_64; rv:121.0) Gecko/20100101 Firefox/121.0" etag="Eg69vqDCEsEQupCZ6h3C" version="22.1.16" type="device" pages="2">
  <diagram name="Page-1" id="5f0bae14-7c28-e335-631c-24af17079c00">
    <mxGraphModel dx="2534" dy="1672" grid="1" gridSize="10" guides="1" tooltips="1" connect="1" arrows="1" fold="1" page="1" pageScale="1" pageWidth="1100" pageHeight="850" background="none" math="0" shadow="0">
      <root>
        <mxCell id="0" />
        <mxCell id="1" parent="0" />
        <mxCell id="2yKHzwhFKuGk8CLsaB_d-164" value="" style="rounded=0;whiteSpace=wrap;html=1;" parent="1" vertex="1">
          <mxGeometry x="225" y="110" width="870" height="1120" as="geometry" />
        </mxCell>
        <mxCell id="2yKHzwhFKuGk8CLsaB_d-8" value="&lt;div&gt;UserWebApp&lt;/div&gt;&lt;div&gt;&lt;br&gt;&lt;/div&gt;" style="shape=module;align=left;spacingLeft=20;align=center;verticalAlign=top;whiteSpace=wrap;html=1;" parent="1" vertex="1">
          <mxGeometry x="10" y="280" width="100" height="50" as="geometry" />
        </mxCell>
        <mxCell id="2yKHzwhFKuGk8CLsaB_d-9" value="" style="rounded=0;orthogonalLoop=1;jettySize=auto;html=1;endArrow=oval;endFill=0;sketch=0;sourcePerimeterSpacing=0;targetPerimeterSpacing=0;endSize=10;exitX=0;exitY=0;exitDx=0;exitDy=15;exitPerimeter=0;" parent="1" source="2yKHzwhFKuGk8CLsaB_d-8" edge="1">
          <mxGeometry relative="1" as="geometry">
            <mxPoint x="640" y="475" as="sourcePoint" />
            <mxPoint x="-40" y="295" as="targetPoint" />
          </mxGeometry>
        </mxCell>
        <mxCell id="2yKHzwhFKuGk8CLsaB_d-10" value="" style="ellipse;whiteSpace=wrap;html=1;align=center;aspect=fixed;fillColor=none;strokeColor=none;resizable=0;perimeter=centerPerimeter;rotatable=0;allowArrows=0;points=[];outlineConnect=1;" parent="1" vertex="1">
          <mxGeometry x="285" y="300" width="10" height="10" as="geometry" />
        </mxCell>
        <mxCell id="2yKHzwhFKuGk8CLsaB_d-11" value="&lt;div&gt;UserManager&lt;/div&gt;" style="shape=module;align=left;spacingLeft=20;align=center;verticalAlign=top;whiteSpace=wrap;html=1;" parent="1" vertex="1">
          <mxGeometry x="240" y="450" width="100" height="50" as="geometry" />
        </mxCell>
        <mxCell id="2yKHzwhFKuGk8CLsaB_d-12" value="" style="ellipse;whiteSpace=wrap;html=1;align=center;aspect=fixed;fillColor=none;strokeColor=none;resizable=0;perimeter=centerPerimeter;rotatable=0;allowArrows=0;points=[];outlineConnect=1;" parent="1" vertex="1">
          <mxGeometry x="285" y="300" width="10" height="10" as="geometry" />
        </mxCell>
        <mxCell id="2yKHzwhFKuGk8CLsaB_d-15" value="" style="ellipse;whiteSpace=wrap;html=1;align=center;aspect=fixed;fillColor=none;strokeColor=none;resizable=0;perimeter=centerPerimeter;rotatable=0;allowArrows=0;points=[];outlineConnect=1;" parent="1" vertex="1">
          <mxGeometry x="285" y="300" width="10" height="10" as="geometry" />
        </mxCell>
        <mxCell id="2yKHzwhFKuGk8CLsaB_d-16" value="&lt;div&gt;Student&lt;/div&gt;&lt;div&gt;Dashboard&lt;/div&gt;&lt;div&gt;Manager&lt;/div&gt;" style="shape=module;align=left;spacingLeft=20;align=center;verticalAlign=top;whiteSpace=wrap;html=1;" parent="1" vertex="1">
          <mxGeometry x="410" y="361.25" width="120" height="60" as="geometry" />
        </mxCell>
        <mxCell id="2yKHzwhFKuGk8CLsaB_d-17" value="&lt;div&gt;Educator&lt;/div&gt;&lt;div&gt;Dashboard&lt;/div&gt;&lt;div&gt;Manager&lt;/div&gt;&lt;div&gt;&lt;br&gt;&lt;/div&gt;" style="shape=module;align=left;spacingLeft=20;align=center;verticalAlign=top;whiteSpace=wrap;html=1;" parent="1" vertex="1">
          <mxGeometry x="420" y="595" width="120" height="55" as="geometry" />
        </mxCell>
        <mxCell id="2yKHzwhFKuGk8CLsaB_d-18" value="" style="rounded=0;orthogonalLoop=1;jettySize=auto;html=1;endArrow=halfCircle;endFill=0;endSize=6;strokeWidth=1;sketch=0;exitX=0.75;exitY=1;exitDx=0;exitDy=0;" parent="1" source="2yKHzwhFKuGk8CLsaB_d-11" edge="1">
          <mxGeometry relative="1" as="geometry">
            <mxPoint x="360" y="350" as="sourcePoint" />
            <mxPoint x="380" y="570" as="targetPoint" />
          </mxGeometry>
        </mxCell>
        <mxCell id="2yKHzwhFKuGk8CLsaB_d-19" value="" style="rounded=0;orthogonalLoop=1;jettySize=auto;html=1;endArrow=oval;endFill=0;sketch=0;sourcePerimeterSpacing=0;targetPerimeterSpacing=0;endSize=10;exitX=0;exitY=0;exitDx=0;exitDy=15;exitPerimeter=0;" parent="1" source="2yKHzwhFKuGk8CLsaB_d-17" edge="1">
          <mxGeometry relative="1" as="geometry">
            <mxPoint x="350" y="652.5" as="sourcePoint" />
            <mxPoint x="380" y="570" as="targetPoint" />
          </mxGeometry>
        </mxCell>
        <mxCell id="2yKHzwhFKuGk8CLsaB_d-20" value="" style="ellipse;whiteSpace=wrap;html=1;align=center;aspect=fixed;fillColor=none;strokeColor=none;resizable=0;perimeter=centerPerimeter;rotatable=0;allowArrows=0;points=[];outlineConnect=1;" parent="1" vertex="1">
          <mxGeometry x="365" y="637.5" width="10" height="10" as="geometry" />
        </mxCell>
        <mxCell id="2yKHzwhFKuGk8CLsaB_d-21" value="" style="rounded=0;orthogonalLoop=1;jettySize=auto;html=1;endArrow=halfCircle;endFill=0;endSize=6;strokeWidth=1;sketch=0;exitX=0.75;exitY=0;exitDx=0;exitDy=0;entryX=0.15;entryY=1.4;entryDx=0;entryDy=0;entryPerimeter=0;" parent="1" source="2yKHzwhFKuGk8CLsaB_d-11" target="2yKHzwhFKuGk8CLsaB_d-23" edge="1">
          <mxGeometry relative="1" as="geometry">
            <mxPoint x="380" y="535" as="sourcePoint" />
            <mxPoint x="340" y="410" as="targetPoint" />
          </mxGeometry>
        </mxCell>
        <mxCell id="2yKHzwhFKuGk8CLsaB_d-22" value="" style="rounded=0;orthogonalLoop=1;jettySize=auto;html=1;endArrow=oval;endFill=0;sketch=0;sourcePerimeterSpacing=0;targetPerimeterSpacing=0;endSize=10;exitX=0;exitY=0;exitDx=0;exitDy=15;exitPerimeter=0;entryX=0.85;entryY=-0.1;entryDx=0;entryDy=0;entryPerimeter=0;" parent="1" source="2yKHzwhFKuGk8CLsaB_d-16" target="2yKHzwhFKuGk8CLsaB_d-23" edge="1">
          <mxGeometry relative="1" as="geometry">
            <mxPoint x="387.5" y="276.25" as="sourcePoint" />
          </mxGeometry>
        </mxCell>
        <mxCell id="2yKHzwhFKuGk8CLsaB_d-23" value="" style="ellipse;whiteSpace=wrap;html=1;align=center;aspect=fixed;fillColor=none;strokeColor=none;resizable=0;perimeter=centerPerimeter;rotatable=0;allowArrows=0;points=[];outlineConnect=1;" parent="1" vertex="1">
          <mxGeometry x="332.5" y="410" width="10" height="10" as="geometry" />
        </mxCell>
        <mxCell id="2yKHzwhFKuGk8CLsaB_d-24" value="&lt;div&gt;BadgeManager&lt;/div&gt;&lt;div&gt;&lt;br&gt;&lt;/div&gt;" style="shape=module;align=left;spacingLeft=20;align=center;verticalAlign=top;whiteSpace=wrap;html=1;" parent="1" vertex="1">
          <mxGeometry x="420" y="770" width="120" height="50" as="geometry" />
        </mxCell>
        <mxCell id="2yKHzwhFKuGk8CLsaB_d-25" value="" style="rounded=0;orthogonalLoop=1;jettySize=auto;html=1;endArrow=halfCircle;endFill=0;endSize=6;strokeWidth=1;sketch=0;exitX=0.5;exitY=1;exitDx=0;exitDy=0;" parent="1" source="2yKHzwhFKuGk8CLsaB_d-17" edge="1">
          <mxGeometry relative="1" as="geometry">
            <mxPoint x="600" y="520" as="sourcePoint" />
            <mxPoint x="480" y="690" as="targetPoint" />
          </mxGeometry>
        </mxCell>
        <mxCell id="2yKHzwhFKuGk8CLsaB_d-26" value="" style="rounded=0;orthogonalLoop=1;jettySize=auto;html=1;endArrow=oval;endFill=0;sketch=0;sourcePerimeterSpacing=0;targetPerimeterSpacing=0;endSize=10;exitX=0.5;exitY=0;exitDx=0;exitDy=0;" parent="1" source="2yKHzwhFKuGk8CLsaB_d-24" edge="1">
          <mxGeometry relative="1" as="geometry">
            <mxPoint x="600" y="135" as="sourcePoint" />
            <mxPoint x="480" y="690" as="targetPoint" />
          </mxGeometry>
        </mxCell>
        <mxCell id="2yKHzwhFKuGk8CLsaB_d-27" value="&lt;div&gt;GamificationRules&lt;/div&gt;&lt;div&gt;Manager&lt;/div&gt;&lt;div&gt;&lt;br&gt;&lt;/div&gt;" style="shape=module;align=left;spacingLeft=20;align=center;verticalAlign=top;whiteSpace=wrap;html=1;" parent="1" vertex="1">
          <mxGeometry x="405" y="945" width="150" height="50" as="geometry" />
        </mxCell>
        <mxCell id="2yKHzwhFKuGk8CLsaB_d-28" value="" style="rounded=0;orthogonalLoop=1;jettySize=auto;html=1;endArrow=halfCircle;endFill=0;endSize=6;strokeWidth=1;sketch=0;exitX=0.5;exitY=1;exitDx=0;exitDy=0;" parent="1" source="2yKHzwhFKuGk8CLsaB_d-24" edge="1">
          <mxGeometry relative="1" as="geometry">
            <mxPoint x="630" y="830" as="sourcePoint" />
            <mxPoint x="480" y="900" as="targetPoint" />
          </mxGeometry>
        </mxCell>
        <mxCell id="2yKHzwhFKuGk8CLsaB_d-29" value="" style="rounded=0;orthogonalLoop=1;jettySize=auto;html=1;endArrow=oval;endFill=0;sketch=0;sourcePerimeterSpacing=0;targetPerimeterSpacing=0;endSize=10;exitX=0.5;exitY=0;exitDx=0;exitDy=0;" parent="1" source="2yKHzwhFKuGk8CLsaB_d-27" target="2yKHzwhFKuGk8CLsaB_d-30" edge="1">
          <mxGeometry relative="1" as="geometry">
            <mxPoint x="540" y="930" as="sourcePoint" />
            <mxPoint x="290" y="940" as="targetPoint" />
          </mxGeometry>
        </mxCell>
        <mxCell id="2yKHzwhFKuGk8CLsaB_d-30" value="" style="ellipse;whiteSpace=wrap;html=1;align=center;aspect=fixed;fillColor=none;strokeColor=none;resizable=0;perimeter=centerPerimeter;rotatable=0;allowArrows=0;points=[];outlineConnect=1;" parent="1" vertex="1">
          <mxGeometry x="475" y="895" width="10" height="10" as="geometry" />
        </mxCell>
        <mxCell id="2yKHzwhFKuGk8CLsaB_d-31" value="&lt;div&gt;GoogleSpreadsheets&lt;/div&gt;&lt;div&gt;&lt;br&gt;&lt;/div&gt;" style="shape=umlActor;verticalLabelPosition=bottom;verticalAlign=top;html=1;" parent="1" vertex="1">
          <mxGeometry x="65" y="930" width="30" height="60" as="geometry" />
        </mxCell>
        <mxCell id="2yKHzwhFKuGk8CLsaB_d-32" value="" style="rounded=0;orthogonalLoop=1;jettySize=auto;html=1;endArrow=halfCircle;endFill=0;endSize=6;strokeWidth=1;sketch=0;" parent="1" source="2yKHzwhFKuGk8CLsaB_d-17" edge="1">
          <mxGeometry relative="1" as="geometry">
            <mxPoint x="680" y="385" as="sourcePoint" />
            <mxPoint x="610" y="390" as="targetPoint" />
          </mxGeometry>
        </mxCell>
        <mxCell id="2yKHzwhFKuGk8CLsaB_d-33" value="" style="rounded=0;orthogonalLoop=1;jettySize=auto;html=1;endArrow=oval;endFill=0;sketch=0;sourcePerimeterSpacing=0;targetPerimeterSpacing=0;endSize=10;exitX=0.087;exitY=0.461;exitDx=0;exitDy=0;exitPerimeter=0;" parent="1" source="2yKHzwhFKuGk8CLsaB_d-89" edge="1">
          <mxGeometry relative="1" as="geometry">
            <mxPoint x="630" y="350" as="sourcePoint" />
            <mxPoint x="610" y="390" as="targetPoint" />
          </mxGeometry>
        </mxCell>
        <mxCell id="2yKHzwhFKuGk8CLsaB_d-34" value="" style="ellipse;whiteSpace=wrap;html=1;align=center;aspect=fixed;fillColor=none;strokeColor=none;resizable=0;perimeter=centerPerimeter;rotatable=0;allowArrows=0;points=[];outlineConnect=1;" parent="1" vertex="1">
          <mxGeometry x="655" y="380" width="10" height="10" as="geometry" />
        </mxCell>
        <mxCell id="2yKHzwhFKuGk8CLsaB_d-38" value="" style="ellipse;whiteSpace=wrap;html=1;align=center;aspect=fixed;fillColor=none;strokeColor=none;resizable=0;perimeter=centerPerimeter;rotatable=0;allowArrows=0;points=[];outlineConnect=1;" parent="1" vertex="1">
          <mxGeometry x="887.5" y="385.63" width="10" height="10" as="geometry" />
        </mxCell>
        <mxCell id="2yKHzwhFKuGk8CLsaB_d-39" value="" style="ellipse;whiteSpace=wrap;html=1;align=center;aspect=fixed;fillColor=none;strokeColor=none;resizable=0;perimeter=centerPerimeter;rotatable=0;allowArrows=0;points=[];outlineConnect=1;" parent="1" vertex="1">
          <mxGeometry x="560" y="650" width="10" height="10" as="geometry" />
        </mxCell>
        <mxCell id="2yKHzwhFKuGk8CLsaB_d-41" value="" style="ellipse;whiteSpace=wrap;html=1;align=center;aspect=fixed;fillColor=none;strokeColor=none;resizable=0;perimeter=centerPerimeter;rotatable=0;allowArrows=0;points=[];outlineConnect=1;" parent="1" vertex="1">
          <mxGeometry x="887.5" y="386.25" width="10" height="10" as="geometry" />
        </mxCell>
        <mxCell id="2yKHzwhFKuGk8CLsaB_d-42" value="" style="rounded=0;orthogonalLoop=1;jettySize=auto;html=1;endArrow=halfCircle;endFill=0;endSize=6;strokeWidth=1;sketch=0;fontSize=12;curved=1;entryX=0.5;entryY=0.2;entryDx=0;entryDy=0;entryPerimeter=0;exitX=1;exitY=0.5;exitDx=0;exitDy=0;" parent="1" source="2yKHzwhFKuGk8CLsaB_d-16" target="2yKHzwhFKuGk8CLsaB_d-81" edge="1">
          <mxGeometry relative="1" as="geometry">
            <mxPoint x="575" y="425" as="sourcePoint" />
          </mxGeometry>
        </mxCell>
        <mxCell id="2yKHzwhFKuGk8CLsaB_d-43" value="" style="ellipse;whiteSpace=wrap;html=1;align=center;aspect=fixed;fillColor=none;strokeColor=none;resizable=0;perimeter=centerPerimeter;rotatable=0;allowArrows=0;points=[];outlineConnect=1;" parent="1" vertex="1">
          <mxGeometry x="560" y="650" width="10" height="10" as="geometry" />
        </mxCell>
        <mxCell id="2yKHzwhFKuGk8CLsaB_d-45" value="&lt;div&gt;GitHub&lt;/div&gt;&lt;div&gt;&lt;br&gt;&lt;/div&gt;" style="shape=umlActor;verticalLabelPosition=bottom;verticalAlign=top;html=1;outlineConnect=0;" parent="1" vertex="1">
          <mxGeometry x="1210" y="895" width="30" height="60" as="geometry" />
        </mxCell>
        <mxCell id="2yKHzwhFKuGk8CLsaB_d-46" value="" style="rounded=0;orthogonalLoop=1;jettySize=auto;html=1;endArrow=halfCircle;endFill=0;endSize=6;strokeWidth=1;sketch=0;" parent="1" source="2yKHzwhFKuGk8CLsaB_d-198" edge="1">
          <mxGeometry relative="1" as="geometry">
            <mxPoint x="740" y="545" as="sourcePoint" />
            <mxPoint x="810" y="930" as="targetPoint" />
          </mxGeometry>
        </mxCell>
        <mxCell id="2yKHzwhFKuGk8CLsaB_d-47" value="" style="rounded=0;orthogonalLoop=1;jettySize=auto;html=1;endArrow=oval;endFill=0;sketch=0;sourcePerimeterSpacing=0;targetPerimeterSpacing=0;endSize=10;exitX=0.554;exitY=1.017;exitDx=0;exitDy=0;exitPerimeter=0;" parent="1" source="2yKHzwhFKuGk8CLsaB_d-79" edge="1">
          <mxGeometry relative="1" as="geometry">
            <mxPoint x="700" y="545" as="sourcePoint" />
            <mxPoint x="810" y="930" as="targetPoint" />
          </mxGeometry>
        </mxCell>
        <mxCell id="2yKHzwhFKuGk8CLsaB_d-48" value="" style="ellipse;whiteSpace=wrap;html=1;align=center;aspect=fixed;fillColor=none;strokeColor=none;resizable=0;perimeter=centerPerimeter;rotatable=0;allowArrows=0;points=[];outlineConnect=1;" parent="1" vertex="1">
          <mxGeometry x="850" y="700" width="10" height="10" as="geometry" />
        </mxCell>
        <mxCell id="2yKHzwhFKuGk8CLsaB_d-49" value="" style="rounded=0;orthogonalLoop=1;jettySize=auto;html=1;endArrow=halfCircle;endFill=0;endSize=6;strokeWidth=1;sketch=0;exitX=0.75;exitY=1;exitDx=0;exitDy=0;entryX=0;entryY=0.5;entryDx=0;entryDy=0;" parent="1" source="2yKHzwhFKuGk8CLsaB_d-79" target="2yKHzwhFKuGk8CLsaB_d-195" edge="1">
          <mxGeometry relative="1" as="geometry">
            <mxPoint x="740" y="545" as="sourcePoint" />
            <mxPoint x="1160" y="1090" as="targetPoint" />
            <Array as="points">
              <mxPoint x="790" y="850" />
            </Array>
          </mxGeometry>
        </mxCell>
        <mxCell id="2yKHzwhFKuGk8CLsaB_d-50" value="" style="rounded=0;orthogonalLoop=1;jettySize=auto;html=1;endArrow=oval;endFill=0;sketch=0;sourcePerimeterSpacing=0;targetPerimeterSpacing=0;endSize=10;" parent="1" source="2yKHzwhFKuGk8CLsaB_d-45" edge="1">
          <mxGeometry relative="1" as="geometry">
            <mxPoint x="1040" y="620" as="sourcePoint" />
            <mxPoint x="1160" y="850" as="targetPoint" />
          </mxGeometry>
        </mxCell>
        <mxCell id="2yKHzwhFKuGk8CLsaB_d-51" value="" style="ellipse;whiteSpace=wrap;html=1;align=center;aspect=fixed;fillColor=none;strokeColor=none;resizable=0;perimeter=centerPerimeter;rotatable=0;allowArrows=0;points=[];outlineConnect=1;" parent="1" vertex="1">
          <mxGeometry x="850" y="700" width="10" height="10" as="geometry" />
        </mxCell>
        <mxCell id="2yKHzwhFKuGk8CLsaB_d-52" value="" style="rounded=0;orthogonalLoop=1;jettySize=auto;html=1;endArrow=halfCircle;endFill=0;endSize=6;strokeWidth=1;sketch=0;fontSize=12;curved=1;exitX=1;exitY=0.5;exitDx=0;exitDy=0;" parent="1" source="2yKHzwhFKuGk8CLsaB_d-16" edge="1">
          <mxGeometry relative="1" as="geometry">
            <mxPoint x="735" y="545" as="sourcePoint" />
            <mxPoint x="610" y="390" as="targetPoint" />
          </mxGeometry>
        </mxCell>
        <mxCell id="2yKHzwhFKuGk8CLsaB_d-53" value="" style="ellipse;whiteSpace=wrap;html=1;align=center;aspect=fixed;fillColor=none;strokeColor=none;resizable=0;perimeter=centerPerimeter;rotatable=0;allowArrows=0;points=[];outlineConnect=1;" parent="1" vertex="1">
          <mxGeometry x="710" y="540" width="10" height="10" as="geometry" />
        </mxCell>
        <mxCell id="2yKHzwhFKuGk8CLsaB_d-54" value="" style="rounded=0;orthogonalLoop=1;jettySize=auto;html=1;endArrow=halfCircle;endFill=0;endSize=6;strokeWidth=1;sketch=0;fontSize=12;curved=1;exitX=1;exitY=0.5;exitDx=0;exitDy=0;" parent="1" source="2yKHzwhFKuGk8CLsaB_d-17" edge="1">
          <mxGeometry relative="1" as="geometry">
            <mxPoint x="735" y="545" as="sourcePoint" />
            <mxPoint x="730" y="620" as="targetPoint" />
          </mxGeometry>
        </mxCell>
        <mxCell id="2yKHzwhFKuGk8CLsaB_d-55" value="" style="ellipse;whiteSpace=wrap;html=1;align=center;aspect=fixed;fillColor=none;strokeColor=none;resizable=0;perimeter=centerPerimeter;rotatable=0;allowArrows=0;points=[];outlineConnect=1;" parent="1" vertex="1">
          <mxGeometry x="710" y="540" width="10" height="10" as="geometry" />
        </mxCell>
        <mxCell id="2yKHzwhFKuGk8CLsaB_d-56" value="&lt;div&gt;AuthenticationService&lt;/div&gt;&lt;div&gt;&lt;br&gt;&lt;/div&gt;" style="shape=umlActor;verticalLabelPosition=bottom;verticalAlign=top;html=1;outlineConnect=0;" parent="1" vertex="1">
          <mxGeometry x="65" y="445" width="30" height="60" as="geometry" />
        </mxCell>
        <mxCell id="2yKHzwhFKuGk8CLsaB_d-58" value="" style="endArrow=open;endSize=12;dashed=1;html=1;rounded=0;exitX=0.25;exitY=1;exitDx=0;exitDy=0;" parent="1" source="2yKHzwhFKuGk8CLsaB_d-11" target="2yKHzwhFKuGk8CLsaB_d-56" edge="1">
          <mxGeometry width="160" relative="1" as="geometry">
            <mxPoint x="210" y="630" as="sourcePoint" />
            <mxPoint x="720" y="510" as="targetPoint" />
            <Array as="points">
              <mxPoint x="265" y="630" />
              <mxPoint x="150" y="630" />
              <mxPoint x="150" y="475" />
            </Array>
          </mxGeometry>
        </mxCell>
        <mxCell id="2yKHzwhFKuGk8CLsaB_d-59" value="" style="endArrow=open;endSize=12;dashed=1;html=1;rounded=0;exitX=0;exitY=0;exitDx=0;exitDy=15;exitPerimeter=0;" parent="1" source="2yKHzwhFKuGk8CLsaB_d-27" target="2yKHzwhFKuGk8CLsaB_d-31" edge="1">
          <mxGeometry width="160" relative="1" as="geometry">
            <mxPoint x="200" y="1055" as="sourcePoint" />
            <mxPoint x="360" y="1055" as="targetPoint" />
          </mxGeometry>
        </mxCell>
        <mxCell id="2yKHzwhFKuGk8CLsaB_d-60" value="" style="ellipse;whiteSpace=wrap;html=1;align=center;aspect=fixed;fillColor=none;strokeColor=none;resizable=0;perimeter=centerPerimeter;rotatable=0;allowArrows=0;points=[];outlineConnect=1;" parent="1" vertex="1">
          <mxGeometry x="635" y="500" width="10" height="10" as="geometry" />
        </mxCell>
        <mxCell id="2yKHzwhFKuGk8CLsaB_d-61" value="" style="rounded=0;orthogonalLoop=1;jettySize=auto;html=1;endArrow=oval;endFill=0;sketch=0;sourcePerimeterSpacing=0;targetPerimeterSpacing=0;endSize=10;exitX=0.674;exitY=1.04;exitDx=0;exitDy=0;exitPerimeter=0;" parent="1" source="2yKHzwhFKuGk8CLsaB_d-83" edge="1">
          <mxGeometry relative="1" as="geometry">
            <mxPoint x="920" y="670" as="sourcePoint" />
            <mxPoint x="920" y="720" as="targetPoint" />
          </mxGeometry>
        </mxCell>
        <mxCell id="2yKHzwhFKuGk8CLsaB_d-62" value="" style="ellipse;whiteSpace=wrap;html=1;align=center;aspect=fixed;fillColor=none;strokeColor=none;resizable=0;perimeter=centerPerimeter;rotatable=0;allowArrows=0;points=[];outlineConnect=1;" parent="1" vertex="1">
          <mxGeometry x="635" y="500" width="10" height="10" as="geometry" />
        </mxCell>
        <mxCell id="2yKHzwhFKuGk8CLsaB_d-63" value="" style="rounded=0;orthogonalLoop=1;jettySize=auto;html=1;endArrow=halfCircle;endFill=0;endSize=6;strokeWidth=1;sketch=0;fontSize=12;curved=1;exitX=0.75;exitY=0;exitDx=0;exitDy=0;" parent="1" source="2yKHzwhFKuGk8CLsaB_d-79" edge="1">
          <mxGeometry relative="1" as="geometry">
            <mxPoint x="655" y="425" as="sourcePoint" />
            <mxPoint x="920" y="720" as="targetPoint" />
          </mxGeometry>
        </mxCell>
        <mxCell id="2yKHzwhFKuGk8CLsaB_d-64" value="" style="ellipse;whiteSpace=wrap;html=1;align=center;aspect=fixed;fillColor=none;strokeColor=none;resizable=0;perimeter=centerPerimeter;rotatable=0;allowArrows=0;points=[];outlineConnect=1;" parent="1" vertex="1">
          <mxGeometry x="630" y="420" width="10" height="10" as="geometry" />
        </mxCell>
        <mxCell id="2yKHzwhFKuGk8CLsaB_d-66" value="" style="ellipse;whiteSpace=wrap;html=1;align=center;aspect=fixed;fillColor=none;strokeColor=none;resizable=0;perimeter=centerPerimeter;rotatable=0;allowArrows=0;points=[];outlineConnect=1;" parent="1" vertex="1">
          <mxGeometry x="630" y="420" width="10" height="10" as="geometry" />
        </mxCell>
        <mxCell id="2yKHzwhFKuGk8CLsaB_d-67" value="&lt;div&gt;Tournament&lt;/div&gt;&lt;div&gt;NotificationI&lt;br&gt;&lt;/div&gt;" style="text;html=1;align=center;verticalAlign=middle;resizable=0;points=[];autosize=1;strokeColor=none;fillColor=none;" parent="1" vertex="1">
          <mxGeometry x="915" y="35" width="90" height="40" as="geometry" />
        </mxCell>
        <mxCell id="2yKHzwhFKuGk8CLsaB_d-68" value="GamificationRulesI" style="text;html=1;align=center;verticalAlign=middle;resizable=0;points=[];autosize=1;strokeColor=none;fillColor=none;" parent="1" vertex="1">
          <mxGeometry x="365" y="865" width="120" height="30" as="geometry" />
        </mxCell>
        <mxCell id="2yKHzwhFKuGk8CLsaB_d-69" value="TournamentI" style="text;html=1;align=center;verticalAlign=middle;resizable=0;points=[];autosize=1;strokeColor=none;fillColor=none;" parent="1" vertex="1">
          <mxGeometry x="565" y="358" width="90" height="30" as="geometry" />
        </mxCell>
        <mxCell id="2yKHzwhFKuGk8CLsaB_d-70" value="StudentI" style="text;html=1;align=center;verticalAlign=middle;resizable=0;points=[];autosize=1;strokeColor=none;fillColor=none;" parent="1" vertex="1">
          <mxGeometry x="305" y="380" width="70" height="30" as="geometry" />
        </mxCell>
        <mxCell id="2yKHzwhFKuGk8CLsaB_d-72" value="&lt;div&gt;GithubWorkflowI&lt;/div&gt;" style="text;html=1;align=center;verticalAlign=middle;resizable=0;points=[];autosize=1;strokeColor=none;fillColor=none;" parent="1" vertex="1">
          <mxGeometry x="770" y="945" width="110" height="30" as="geometry" />
        </mxCell>
        <mxCell id="2yKHzwhFKuGk8CLsaB_d-73" value="&lt;div&gt;GithubAPI&lt;/div&gt;" style="text;html=1;align=center;verticalAlign=middle;resizable=0;points=[];autosize=1;strokeColor=none;fillColor=none;" parent="1" vertex="1">
          <mxGeometry x="1150" y="825" width="80" height="30" as="geometry" />
        </mxCell>
        <mxCell id="2yKHzwhFKuGk8CLsaB_d-75" value="" style="ellipse;whiteSpace=wrap;html=1;align=center;aspect=fixed;fillColor=none;strokeColor=none;resizable=0;perimeter=centerPerimeter;rotatable=0;allowArrows=0;points=[];outlineConnect=1;" parent="1" vertex="1">
          <mxGeometry x="630" y="540" width="10" height="10" as="geometry" />
        </mxCell>
        <mxCell id="2yKHzwhFKuGk8CLsaB_d-76" value="" style="endArrow=open;endSize=12;dashed=1;html=1;rounded=0;exitX=0;exitY=0.5;exitDx=0;exitDy=0;" parent="1" source="2yKHzwhFKuGk8CLsaB_d-97" target="2yKHzwhFKuGk8CLsaB_d-134" edge="1">
          <mxGeometry width="160" relative="1" as="geometry">
            <mxPoint x="480" y="78" as="sourcePoint" />
            <mxPoint x="470" y="330" as="targetPoint" />
            <Array as="points" />
          </mxGeometry>
        </mxCell>
        <mxCell id="2yKHzwhFKuGk8CLsaB_d-77" value="BadgesManagerI" style="text;html=1;align=center;verticalAlign=middle;resizable=0;points=[];autosize=1;strokeColor=none;fillColor=none;" parent="1" vertex="1">
          <mxGeometry x="480" y="680" width="110" height="30" as="geometry" />
        </mxCell>
        <mxCell id="2yKHzwhFKuGk8CLsaB_d-78" value="EducatorI" style="text;html=1;align=center;verticalAlign=middle;resizable=0;points=[];autosize=1;strokeColor=none;fillColor=none;" parent="1" vertex="1">
          <mxGeometry x="305" y="568" width="70" height="30" as="geometry" />
        </mxCell>
        <mxCell id="2yKHzwhFKuGk8CLsaB_d-79" value="BattleManager" style="shape=module;align=left;spacingLeft=20;align=center;verticalAlign=top;whiteSpace=wrap;html=1;" parent="1" vertex="1">
          <mxGeometry x="670" y="765" width="120" height="60" as="geometry" />
        </mxCell>
        <mxCell id="2yKHzwhFKuGk8CLsaB_d-80" value="&lt;div&gt;BattleI&lt;/div&gt;&lt;div&gt;&lt;br&gt;&lt;/div&gt;" style="text;html=1;align=center;verticalAlign=middle;resizable=0;points=[];autosize=1;strokeColor=none;fillColor=none;" parent="1" vertex="1">
          <mxGeometry x="680" y="625" width="60" height="40" as="geometry" />
        </mxCell>
        <mxCell id="2yKHzwhFKuGk8CLsaB_d-81" value="" style="ellipse;whiteSpace=wrap;html=1;align=center;aspect=fixed;fillColor=none;strokeColor=none;resizable=0;perimeter=centerPerimeter;rotatable=0;allowArrows=0;points=[];outlineConnect=1;" parent="1" vertex="1">
          <mxGeometry x="725" y="615" width="10" height="10" as="geometry" />
        </mxCell>
        <mxCell id="2yKHzwhFKuGk8CLsaB_d-82" value="" style="rounded=0;orthogonalLoop=1;jettySize=auto;html=1;endArrow=oval;endFill=0;sketch=0;sourcePerimeterSpacing=0;targetPerimeterSpacing=0;endSize=10;entryX=0.9;entryY=0.7;entryDx=0;entryDy=0;entryPerimeter=0;" parent="1" source="2yKHzwhFKuGk8CLsaB_d-79" target="2yKHzwhFKuGk8CLsaB_d-81" edge="1">
          <mxGeometry relative="1" as="geometry">
            <mxPoint x="710" y="560" as="sourcePoint" />
            <mxPoint x="740" y="620" as="targetPoint" />
          </mxGeometry>
        </mxCell>
        <mxCell id="2yKHzwhFKuGk8CLsaB_d-83" value="&lt;div&gt;Team&lt;/div&gt;&lt;div&gt;Manager&lt;/div&gt;&lt;div&gt;&lt;br&gt;&lt;/div&gt;" style="shape=module;align=left;spacingLeft=20;align=center;verticalAlign=top;whiteSpace=wrap;html=1;" parent="1" vertex="1">
          <mxGeometry x="845" y="600" width="107.5" height="50" as="geometry" />
        </mxCell>
        <mxCell id="2yKHzwhFKuGk8CLsaB_d-84" value="&lt;div&gt;AutomatedEvalI&lt;/div&gt;" style="text;html=1;align=center;verticalAlign=middle;resizable=0;points=[];autosize=1;strokeColor=none;fillColor=none;" parent="1" vertex="1">
          <mxGeometry x="657.5" y="910" width="110" height="30" as="geometry" />
        </mxCell>
        <mxCell id="2yKHzwhFKuGk8CLsaB_d-85" value="&lt;div&gt;Automated&lt;/div&gt;&lt;div&gt;Evaluation&lt;/div&gt;&lt;div&gt;Manager&lt;br&gt;&lt;/div&gt;" style="shape=module;align=left;spacingLeft=20;align=center;verticalAlign=top;whiteSpace=wrap;html=1;" parent="1" vertex="1">
          <mxGeometry x="672.5" y="1000" width="115" height="60" as="geometry" />
        </mxCell>
        <mxCell id="2yKHzwhFKuGk8CLsaB_d-86" value="" style="ellipse;whiteSpace=wrap;html=1;align=center;aspect=fixed;fillColor=none;strokeColor=none;resizable=0;perimeter=centerPerimeter;rotatable=0;allowArrows=0;points=[];outlineConnect=1;" parent="1" vertex="1">
          <mxGeometry x="835" y="700" width="10" height="10" as="geometry" />
        </mxCell>
        <mxCell id="2yKHzwhFKuGk8CLsaB_d-87" value="" style="rounded=0;orthogonalLoop=1;jettySize=auto;html=1;endArrow=halfCircle;endFill=0;endSize=6;strokeWidth=1;sketch=0;exitX=0.5;exitY=1;exitDx=0;exitDy=0;" parent="1" source="2yKHzwhFKuGk8CLsaB_d-79" edge="1">
          <mxGeometry relative="1" as="geometry">
            <mxPoint x="750" y="545" as="sourcePoint" />
            <mxPoint x="730" y="900" as="targetPoint" />
          </mxGeometry>
        </mxCell>
        <mxCell id="2yKHzwhFKuGk8CLsaB_d-88" value="" style="rounded=0;orthogonalLoop=1;jettySize=auto;html=1;endArrow=oval;endFill=0;sketch=0;sourcePerimeterSpacing=0;targetPerimeterSpacing=0;endSize=10;exitX=0.5;exitY=0;exitDx=0;exitDy=0;" parent="1" source="2yKHzwhFKuGk8CLsaB_d-85" edge="1">
          <mxGeometry relative="1" as="geometry">
            <mxPoint x="937.5" y="870" as="sourcePoint" />
            <mxPoint x="730" y="900" as="targetPoint" />
          </mxGeometry>
        </mxCell>
        <mxCell id="2yKHzwhFKuGk8CLsaB_d-89" value="&lt;div&gt;Tournament&lt;/div&gt;&lt;div&gt;Manager&lt;/div&gt;" style="shape=module;align=left;spacingLeft=20;align=center;verticalAlign=top;whiteSpace=wrap;html=1;" parent="1" vertex="1">
          <mxGeometry x="667.5" y="362.5" width="125" height="57.5" as="geometry" />
        </mxCell>
        <mxCell id="2yKHzwhFKuGk8CLsaB_d-90" value="" style="rounded=0;orthogonalLoop=1;jettySize=auto;html=1;endArrow=halfCircle;endFill=0;endSize=6;strokeWidth=1;sketch=0;exitX=0.5;exitY=1;exitDx=0;exitDy=0;" parent="1" source="2yKHzwhFKuGk8CLsaB_d-89" target="2yKHzwhFKuGk8CLsaB_d-81" edge="1">
          <mxGeometry relative="1" as="geometry">
            <mxPoint x="760" y="560" as="sourcePoint" />
          </mxGeometry>
        </mxCell>
        <mxCell id="2yKHzwhFKuGk8CLsaB_d-91" value="TeamManagerI" style="text;html=1;align=center;verticalAlign=middle;resizable=0;points=[];autosize=1;strokeColor=none;fillColor=none;" parent="1" vertex="1">
          <mxGeometry x="887.5" y="730" width="100" height="30" as="geometry" />
        </mxCell>
        <mxCell id="2yKHzwhFKuGk8CLsaB_d-92" value="Invitation&lt;br&gt;Manager" style="shape=module;align=left;spacingLeft=20;align=center;verticalAlign=top;whiteSpace=wrap;html=1;" parent="1" vertex="1">
          <mxGeometry x="750" y="490" width="100" height="50" as="geometry" />
        </mxCell>
        <mxCell id="2yKHzwhFKuGk8CLsaB_d-97" value="&amp;nbsp;" style="html=1;whiteSpace=wrap;" parent="1" vertex="1">
          <mxGeometry x="517.5" y="-240" width="342.5" height="300" as="geometry" />
        </mxCell>
        <mxCell id="2yKHzwhFKuGk8CLsaB_d-99" value="&amp;nbsp;" style="html=1;whiteSpace=wrap;" parent="1" vertex="1">
          <mxGeometry x="850" y="2.5" width="25" height="20" as="geometry" />
        </mxCell>
        <mxCell id="2yKHzwhFKuGk8CLsaB_d-100" value="Tournament&lt;br&gt;Notification&lt;br&gt;Manager" style="shape=module;align=left;spacingLeft=20;align=center;verticalAlign=top;whiteSpace=wrap;html=1;" parent="1" vertex="1">
          <mxGeometry x="660" y="-20" width="130" height="65" as="geometry" />
        </mxCell>
        <mxCell id="2yKHzwhFKuGk8CLsaB_d-105" value="&amp;nbsp;" style="html=1;whiteSpace=wrap;" parent="1" vertex="1">
          <mxGeometry x="850" y="-80" width="25" height="20" as="geometry" />
        </mxCell>
        <mxCell id="2yKHzwhFKuGk8CLsaB_d-106" value="Battle&lt;br&gt;Notification&lt;br&gt;Manager" style="shape=module;align=left;spacingLeft=20;align=center;verticalAlign=top;whiteSpace=wrap;html=1;" parent="1" vertex="1">
          <mxGeometry x="657.5" y="-102.5" width="130" height="65" as="geometry" />
        </mxCell>
        <mxCell id="2yKHzwhFKuGk8CLsaB_d-110" value="&lt;div&gt;Invitation&lt;/div&gt;&lt;div&gt;Notification&lt;/div&gt;&lt;div&gt;Manager&lt;/div&gt;" style="shape=module;align=left;spacingLeft=20;align=center;verticalAlign=top;whiteSpace=wrap;html=1;" parent="1" vertex="1">
          <mxGeometry x="660" y="-200" width="130" height="60" as="geometry" />
        </mxCell>
        <mxCell id="2yKHzwhFKuGk8CLsaB_d-111" value="&amp;nbsp;" style="html=1;whiteSpace=wrap;" parent="1" vertex="1">
          <mxGeometry x="850" y="-180" width="25" height="20" as="geometry" />
        </mxCell>
        <mxCell id="2yKHzwhFKuGk8CLsaB_d-112" value="" style="rounded=0;orthogonalLoop=1;jettySize=auto;html=1;endArrow=halfCircle;endFill=0;endSize=6;strokeWidth=1;sketch=0;exitX=0.5;exitY=0;exitDx=0;exitDy=0;" parent="1" source="2yKHzwhFKuGk8CLsaB_d-83" edge="1">
          <mxGeometry relative="1" as="geometry">
            <mxPoint x="900" y="590" as="sourcePoint" />
            <mxPoint x="900" y="560" as="targetPoint" />
          </mxGeometry>
        </mxCell>
        <mxCell id="2yKHzwhFKuGk8CLsaB_d-113" value="" style="rounded=0;orthogonalLoop=1;jettySize=auto;html=1;endArrow=oval;endFill=0;sketch=0;sourcePerimeterSpacing=0;targetPerimeterSpacing=0;endSize=10;exitX=1;exitY=0.75;exitDx=0;exitDy=0;" parent="1" source="2yKHzwhFKuGk8CLsaB_d-92" edge="1">
          <mxGeometry relative="1" as="geometry">
            <mxPoint x="580" y="655" as="sourcePoint" />
            <mxPoint x="900" y="560" as="targetPoint" />
          </mxGeometry>
        </mxCell>
        <mxCell id="2yKHzwhFKuGk8CLsaB_d-114" value="" style="ellipse;whiteSpace=wrap;html=1;align=center;aspect=fixed;fillColor=none;strokeColor=none;resizable=0;perimeter=centerPerimeter;rotatable=0;allowArrows=0;points=[];outlineConnect=1;" parent="1" vertex="1">
          <mxGeometry x="595" y="650" width="10" height="10" as="geometry" />
        </mxCell>
        <mxCell id="2yKHzwhFKuGk8CLsaB_d-118" value="&lt;div&gt;Invitation&lt;/div&gt;&lt;div&gt;ManagerI&lt;br&gt;&lt;/div&gt;" style="text;html=1;align=center;verticalAlign=middle;resizable=0;points=[];autosize=1;strokeColor=none;fillColor=none;" parent="1" vertex="1">
          <mxGeometry x="887.5" y="520" width="70" height="40" as="geometry" />
        </mxCell>
        <mxCell id="2yKHzwhFKuGk8CLsaB_d-119" value="" style="rounded=0;orthogonalLoop=1;jettySize=auto;html=1;endArrow=halfCircle;endFill=0;endSize=6;strokeWidth=1;sketch=0;fontSize=12;curved=1;exitX=0;exitY=0;exitDx=0;exitDy=15;exitPerimeter=0;entryX=0.85;entryY=0.3;entryDx=0;entryDy=0;entryPerimeter=0;" parent="1" source="2yKHzwhFKuGk8CLsaB_d-92" target="2yKHzwhFKuGk8CLsaB_d-23" edge="1">
          <mxGeometry relative="1" as="geometry">
            <mxPoint x="615" y="655" as="sourcePoint" />
            <mxPoint x="370" y="470" as="targetPoint" />
          </mxGeometry>
        </mxCell>
        <mxCell id="2yKHzwhFKuGk8CLsaB_d-120" value="" style="ellipse;whiteSpace=wrap;html=1;align=center;aspect=fixed;fillColor=none;strokeColor=none;resizable=0;perimeter=centerPerimeter;rotatable=0;allowArrows=0;points=[];outlineConnect=1;" parent="1" vertex="1">
          <mxGeometry x="590" y="650" width="10" height="10" as="geometry" />
        </mxCell>
        <mxCell id="2yKHzwhFKuGk8CLsaB_d-122" value="" style="rounded=0;orthogonalLoop=1;jettySize=auto;html=1;endArrow=oval;endFill=0;sketch=0;sourcePerimeterSpacing=0;targetPerimeterSpacing=0;endSize=10;exitX=1;exitY=0.5;exitDx=0;exitDy=0;" parent="1" source="2yKHzwhFKuGk8CLsaB_d-99" edge="1">
          <mxGeometry relative="1" as="geometry">
            <mxPoint x="1030" y="205" as="sourcePoint" />
            <mxPoint x="950" y="20" as="targetPoint" />
          </mxGeometry>
        </mxCell>
        <mxCell id="2yKHzwhFKuGk8CLsaB_d-123" value="" style="ellipse;whiteSpace=wrap;html=1;align=center;aspect=fixed;fillColor=none;strokeColor=none;resizable=0;perimeter=centerPerimeter;rotatable=0;allowArrows=0;points=[];outlineConnect=1;" parent="1" vertex="1">
          <mxGeometry x="1045" y="200" width="10" height="10" as="geometry" />
        </mxCell>
        <mxCell id="2yKHzwhFKuGk8CLsaB_d-127" value="" style="rounded=0;orthogonalLoop=1;jettySize=auto;html=1;endArrow=halfCircle;endFill=0;endSize=6;strokeWidth=1;sketch=0;exitX=1;exitY=0.5;exitDx=0;exitDy=0;" parent="1" source="2yKHzwhFKuGk8CLsaB_d-182" edge="1">
          <mxGeometry relative="1" as="geometry">
            <mxPoint x="1170" y="790" as="sourcePoint" />
            <mxPoint x="950" y="-70" as="targetPoint" />
            <Array as="points">
              <mxPoint x="1320" y="790" />
              <mxPoint x="1320" y="-70" />
            </Array>
          </mxGeometry>
        </mxCell>
        <mxCell id="2yKHzwhFKuGk8CLsaB_d-128" value="" style="rounded=0;orthogonalLoop=1;jettySize=auto;html=1;endArrow=oval;endFill=0;sketch=0;sourcePerimeterSpacing=0;targetPerimeterSpacing=0;endSize=10;exitX=1;exitY=0.5;exitDx=0;exitDy=0;" parent="1" source="2yKHzwhFKuGk8CLsaB_d-105" edge="1">
          <mxGeometry relative="1" as="geometry">
            <mxPoint x="1030" y="165" as="sourcePoint" />
            <mxPoint x="950" y="-70" as="targetPoint" />
          </mxGeometry>
        </mxCell>
        <mxCell id="2yKHzwhFKuGk8CLsaB_d-129" value="" style="ellipse;whiteSpace=wrap;html=1;align=center;aspect=fixed;fillColor=none;strokeColor=none;resizable=0;perimeter=centerPerimeter;rotatable=0;allowArrows=0;points=[];outlineConnect=1;" parent="1" vertex="1">
          <mxGeometry x="1045" y="160" width="10" height="10" as="geometry" />
        </mxCell>
        <mxCell id="2yKHzwhFKuGk8CLsaB_d-130" value="" style="rounded=0;orthogonalLoop=1;jettySize=auto;html=1;endArrow=halfCircle;endFill=0;endSize=6;strokeWidth=1;sketch=0;exitX=1;exitY=0.5;exitDx=0;exitDy=0;" parent="1" source="2yKHzwhFKuGk8CLsaB_d-168" edge="1">
          <mxGeometry relative="1" as="geometry">
            <mxPoint x="1360" y="970" as="sourcePoint" />
            <mxPoint x="960" y="-170" as="targetPoint" />
            <Array as="points">
              <mxPoint x="1360" y="391" />
              <mxPoint x="1360" y="-170" />
            </Array>
          </mxGeometry>
        </mxCell>
        <mxCell id="2yKHzwhFKuGk8CLsaB_d-131" value="" style="rounded=0;orthogonalLoop=1;jettySize=auto;html=1;endArrow=oval;endFill=0;sketch=0;sourcePerimeterSpacing=0;targetPerimeterSpacing=0;endSize=10;exitX=1;exitY=0.5;exitDx=0;exitDy=0;" parent="1" source="2yKHzwhFKuGk8CLsaB_d-111" edge="1">
          <mxGeometry relative="1" as="geometry">
            <mxPoint x="940" y="75" as="sourcePoint" />
            <mxPoint x="960" y="-170" as="targetPoint" />
          </mxGeometry>
        </mxCell>
        <mxCell id="2yKHzwhFKuGk8CLsaB_d-132" value="" style="ellipse;whiteSpace=wrap;html=1;align=center;aspect=fixed;fillColor=none;strokeColor=none;resizable=0;perimeter=centerPerimeter;rotatable=0;allowArrows=0;points=[];outlineConnect=1;" parent="1" vertex="1">
          <mxGeometry x="955" y="70" width="10" height="10" as="geometry" />
        </mxCell>
        <mxCell id="2yKHzwhFKuGk8CLsaB_d-134" value="MailingService" style="shape=umlActor;verticalLabelPosition=bottom;verticalAlign=top;html=1;" parent="1" vertex="1">
          <mxGeometry x="250" y="-120" width="30" height="60" as="geometry" />
        </mxCell>
        <mxCell id="2yKHzwhFKuGk8CLsaB_d-135" value="" style="rounded=0;orthogonalLoop=1;jettySize=auto;html=1;endArrow=halfCircle;endFill=0;endSize=6;strokeWidth=1;sketch=0;fontSize=12;curved=1;exitX=0.75;exitY=0;exitDx=0;exitDy=0;" parent="1" source="2yKHzwhFKuGk8CLsaB_d-16" edge="1">
          <mxGeometry relative="1" as="geometry">
            <mxPoint x="925" y="395" as="sourcePoint" />
            <mxPoint x="500" y="320" as="targetPoint" />
          </mxGeometry>
        </mxCell>
        <mxCell id="2yKHzwhFKuGk8CLsaB_d-136" value="" style="ellipse;whiteSpace=wrap;html=1;align=center;aspect=fixed;fillColor=none;strokeColor=none;resizable=0;perimeter=centerPerimeter;rotatable=0;allowArrows=0;points=[];outlineConnect=1;" parent="1" vertex="1">
          <mxGeometry x="900" y="390" width="10" height="10" as="geometry" />
        </mxCell>
        <mxCell id="2yKHzwhFKuGk8CLsaB_d-138" value="&lt;div&gt;&lt;br&gt;&lt;/div&gt;&lt;div&gt;&lt;br&gt;&lt;/div&gt;" style="endArrow=open;endSize=12;dashed=1;html=1;rounded=0;" parent="1" edge="1">
          <mxGeometry width="160" relative="1" as="geometry">
            <mxPoint x="500" y="320" as="sourcePoint" />
            <mxPoint x="930" y="720" as="targetPoint" />
            <Array as="points">
              <mxPoint x="500" y="240" />
              <mxPoint x="1000" y="240" />
              <mxPoint x="1000" y="720" />
            </Array>
          </mxGeometry>
        </mxCell>
        <mxCell id="2yKHzwhFKuGk8CLsaB_d-140" value="&amp;nbsp;" style="html=1;whiteSpace=wrap;" parent="1" vertex="1">
          <mxGeometry x="505" y="-100" width="25" height="20" as="geometry" />
        </mxCell>
        <mxCell id="2yKHzwhFKuGk8CLsaB_d-143" value="" style="shape=requiredInterface;html=1;verticalLabelPosition=bottom;sketch=0;" parent="1" vertex="1">
          <mxGeometry x="540" y="-100" width="10" height="20" as="geometry" />
        </mxCell>
        <mxCell id="2yKHzwhFKuGk8CLsaB_d-144" value="" style="text;strokeColor=none;fillColor=none;align=left;verticalAlign=middle;spacingTop=-1;spacingLeft=4;spacingRight=4;rotatable=0;labelPosition=right;points=[];portConstraint=eastwest;" parent="1" vertex="1">
          <mxGeometry x="720" y="-20" width="20" height="14" as="geometry" />
        </mxCell>
        <mxCell id="2yKHzwhFKuGk8CLsaB_d-150" value="" style="endArrow=none;html=1;rounded=0;entryX=1;entryY=0.5;entryDx=0;entryDy=0;entryPerimeter=0;exitX=0;exitY=0;exitDx=0;exitDy=35;exitPerimeter=0;" parent="1" source="2yKHzwhFKuGk8CLsaB_d-100" target="2yKHzwhFKuGk8CLsaB_d-143" edge="1">
          <mxGeometry width="50" height="50" relative="1" as="geometry">
            <mxPoint x="270" y="140" as="sourcePoint" />
            <mxPoint x="320" y="90" as="targetPoint" />
            <Array as="points">
              <mxPoint x="600" y="15" />
              <mxPoint x="600" y="-90" />
            </Array>
          </mxGeometry>
        </mxCell>
        <mxCell id="2yKHzwhFKuGk8CLsaB_d-151" value="" style="endArrow=none;html=1;rounded=0;entryX=1;entryY=0.5;entryDx=0;entryDy=0;entryPerimeter=0;exitX=0;exitY=0;exitDx=0;exitDy=15;exitPerimeter=0;" parent="1" source="2yKHzwhFKuGk8CLsaB_d-106" target="2yKHzwhFKuGk8CLsaB_d-143" edge="1">
          <mxGeometry width="50" height="50" relative="1" as="geometry">
            <mxPoint x="670" y="25" as="sourcePoint" />
            <mxPoint x="560" y="-80" as="targetPoint" />
          </mxGeometry>
        </mxCell>
        <mxCell id="2yKHzwhFKuGk8CLsaB_d-152" value="" style="endArrow=none;html=1;rounded=0;entryX=1;entryY=0.5;entryDx=0;entryDy=0;entryPerimeter=0;exitX=0;exitY=0;exitDx=0;exitDy=15;exitPerimeter=0;" parent="1" source="2yKHzwhFKuGk8CLsaB_d-110" target="2yKHzwhFKuGk8CLsaB_d-143" edge="1">
          <mxGeometry width="50" height="50" relative="1" as="geometry">
            <mxPoint x="680" y="35" as="sourcePoint" />
            <mxPoint x="570" y="-70" as="targetPoint" />
            <Array as="points">
              <mxPoint x="600" y="-185" />
              <mxPoint x="600" y="-90" />
            </Array>
          </mxGeometry>
        </mxCell>
        <mxCell id="2yKHzwhFKuGk8CLsaB_d-153" value="" style="endArrow=none;html=1;rounded=0;entryX=0;entryY=0.5;entryDx=0;entryDy=0;exitX=1;exitY=0.5;exitDx=0;exitDy=0;" parent="1" source="2yKHzwhFKuGk8CLsaB_d-160" target="2yKHzwhFKuGk8CLsaB_d-105" edge="1">
          <mxGeometry width="50" height="50" relative="1" as="geometry">
            <mxPoint x="710" y="20" as="sourcePoint" />
            <mxPoint x="760" y="-30" as="targetPoint" />
          </mxGeometry>
        </mxCell>
        <mxCell id="2yKHzwhFKuGk8CLsaB_d-155" value="" style="endArrow=none;html=1;rounded=0;entryX=0;entryY=0.5;entryDx=0;entryDy=0;exitX=1;exitY=0.5;exitDx=0;exitDy=0;" parent="1" source="2yKHzwhFKuGk8CLsaB_d-158" target="2yKHzwhFKuGk8CLsaB_d-99" edge="1">
          <mxGeometry width="50" height="50" relative="1" as="geometry">
            <mxPoint x="440" y="180" as="sourcePoint" />
            <mxPoint x="490" y="130" as="targetPoint" />
          </mxGeometry>
        </mxCell>
        <mxCell id="2yKHzwhFKuGk8CLsaB_d-156" value="" style="endArrow=none;html=1;rounded=0;entryX=0;entryY=0.5;entryDx=0;entryDy=0;exitX=1;exitY=0.5;exitDx=0;exitDy=0;" parent="1" source="2yKHzwhFKuGk8CLsaB_d-162" target="2yKHzwhFKuGk8CLsaB_d-111" edge="1">
          <mxGeometry width="50" height="50" relative="1" as="geometry">
            <mxPoint x="320" y="150" as="sourcePoint" />
            <mxPoint x="370" y="100" as="targetPoint" />
          </mxGeometry>
        </mxCell>
        <mxCell id="2yKHzwhFKuGk8CLsaB_d-159" value="" style="endArrow=none;html=1;rounded=0;entryX=0;entryY=0.5;entryDx=0;entryDy=0;exitX=1;exitY=0.5;exitDx=0;exitDy=0;" parent="1" source="2yKHzwhFKuGk8CLsaB_d-100" target="2yKHzwhFKuGk8CLsaB_d-158" edge="1">
          <mxGeometry width="50" height="50" relative="1" as="geometry">
            <mxPoint x="790" y="13" as="sourcePoint" />
            <mxPoint x="850" y="13" as="targetPoint" />
          </mxGeometry>
        </mxCell>
        <mxCell id="2yKHzwhFKuGk8CLsaB_d-158" value="" style="ellipse;whiteSpace=wrap;html=1;aspect=fixed;rotation=-180;" parent="1" vertex="1">
          <mxGeometry x="790" y="7.5" width="10" height="10" as="geometry" />
        </mxCell>
        <mxCell id="2yKHzwhFKuGk8CLsaB_d-161" value="" style="endArrow=none;html=1;rounded=0;entryX=0;entryY=0.5;entryDx=0;entryDy=0;exitX=1;exitY=0.5;exitDx=0;exitDy=0;" parent="1" source="2yKHzwhFKuGk8CLsaB_d-106" target="2yKHzwhFKuGk8CLsaB_d-160" edge="1">
          <mxGeometry width="50" height="50" relative="1" as="geometry">
            <mxPoint x="788" y="-70" as="sourcePoint" />
            <mxPoint x="850" y="-70" as="targetPoint" />
          </mxGeometry>
        </mxCell>
        <mxCell id="2yKHzwhFKuGk8CLsaB_d-160" value="" style="ellipse;whiteSpace=wrap;html=1;aspect=fixed;rotation=-180;" parent="1" vertex="1">
          <mxGeometry x="787.5" y="-75" width="10" height="10" as="geometry" />
        </mxCell>
        <mxCell id="2yKHzwhFKuGk8CLsaB_d-163" value="" style="endArrow=none;html=1;rounded=0;entryX=0;entryY=0.5;entryDx=0;entryDy=0;exitX=1;exitY=0.5;exitDx=0;exitDy=0;" parent="1" source="2yKHzwhFKuGk8CLsaB_d-110" target="2yKHzwhFKuGk8CLsaB_d-162" edge="1">
          <mxGeometry width="50" height="50" relative="1" as="geometry">
            <mxPoint x="790" y="-170" as="sourcePoint" />
            <mxPoint x="843" y="-170" as="targetPoint" />
          </mxGeometry>
        </mxCell>
        <mxCell id="2yKHzwhFKuGk8CLsaB_d-162" value="" style="ellipse;whiteSpace=wrap;html=1;aspect=fixed;rotation=-180;" parent="1" vertex="1">
          <mxGeometry x="790" y="-175" width="10" height="10" as="geometry" />
        </mxCell>
        <mxCell id="2yKHzwhFKuGk8CLsaB_d-165" value="&lt;div&gt;CKB Core Business Logic&lt;br&gt;&lt;/div&gt;" style="text;html=1;strokeColor=none;fillColor=none;align=center;verticalAlign=middle;whiteSpace=wrap;rounded=0;" parent="1" vertex="1">
          <mxGeometry x="590" y="112" width="175" height="30" as="geometry" />
        </mxCell>
        <mxCell id="2yKHzwhFKuGk8CLsaB_d-166" value="" style="line;strokeWidth=1;fillColor=none;align=left;verticalAlign=middle;spacingTop=-1;spacingLeft=3;spacingRight=3;rotatable=0;labelPosition=right;points=[];portConstraint=eastwest;strokeColor=inherit;" parent="1" vertex="1">
          <mxGeometry x="517.5" y="-218" width="342.5" height="8" as="geometry" />
        </mxCell>
        <mxCell id="2yKHzwhFKuGk8CLsaB_d-167" value="" style="line;strokeWidth=1;fillColor=none;align=left;verticalAlign=middle;spacingTop=-1;spacingLeft=3;spacingRight=3;rotatable=0;labelPosition=right;points=[];portConstraint=eastwest;strokeColor=inherit;" parent="1" vertex="1">
          <mxGeometry x="230" y="142" width="870" height="8" as="geometry" />
        </mxCell>
        <mxCell id="2yKHzwhFKuGk8CLsaB_d-171" value="" style="rounded=0;orthogonalLoop=1;jettySize=auto;html=1;endArrow=halfCircle;endFill=0;endSize=6;strokeWidth=1;sketch=0;exitX=1;exitY=0.5;exitDx=0;exitDy=0;" parent="1" source="2yKHzwhFKuGk8CLsaB_d-89" target="2yKHzwhFKuGk8CLsaB_d-168" edge="1">
          <mxGeometry relative="1" as="geometry">
            <mxPoint x="793" y="391" as="sourcePoint" />
            <mxPoint x="960" y="-170" as="targetPoint" />
            <Array as="points" />
          </mxGeometry>
        </mxCell>
        <mxCell id="2yKHzwhFKuGk8CLsaB_d-168" value="&amp;nbsp;" style="html=1;whiteSpace=wrap;" parent="1" vertex="1">
          <mxGeometry x="1090" y="380" width="25" height="20" as="geometry" />
        </mxCell>
        <mxCell id="2yKHzwhFKuGk8CLsaB_d-178" value="" style="rounded=0;orthogonalLoop=1;jettySize=auto;html=1;endArrow=halfCircle;endFill=0;endSize=6;strokeWidth=1;sketch=0;exitX=0.8;exitY=0.4;exitDx=0;exitDy=0;exitPerimeter=0;" parent="1" source="2yKHzwhFKuGk8CLsaB_d-172" edge="1">
          <mxGeometry relative="1" as="geometry">
            <mxPoint x="1120" y="503" as="sourcePoint" />
            <mxPoint x="950" y="20" as="targetPoint" />
            <Array as="points">
              <mxPoint x="1280" y="503" />
              <mxPoint x="1280" y="20" />
            </Array>
          </mxGeometry>
        </mxCell>
        <mxCell id="2yKHzwhFKuGk8CLsaB_d-172" value="&amp;nbsp;" style="html=1;whiteSpace=wrap;" parent="1" vertex="1">
          <mxGeometry x="1090" y="495" width="25" height="20" as="geometry" />
        </mxCell>
        <mxCell id="2yKHzwhFKuGk8CLsaB_d-180" value="" style="rounded=0;orthogonalLoop=1;jettySize=auto;html=1;endArrow=halfCircle;endFill=0;endSize=6;strokeWidth=1;sketch=0;fontSize=12;curved=1;entryX=0;entryY=0.5;entryDx=0;entryDy=0;exitX=1;exitY=0.25;exitDx=0;exitDy=0;" parent="1" source="2yKHzwhFKuGk8CLsaB_d-92" target="2yKHzwhFKuGk8CLsaB_d-172" edge="1">
          <mxGeometry relative="1" as="geometry">
            <mxPoint x="735" y="315" as="sourcePoint" />
          </mxGeometry>
        </mxCell>
        <mxCell id="2yKHzwhFKuGk8CLsaB_d-181" value="" style="ellipse;whiteSpace=wrap;html=1;align=center;aspect=fixed;fillColor=none;strokeColor=none;resizable=0;perimeter=centerPerimeter;rotatable=0;allowArrows=0;points=[];outlineConnect=1;" parent="1" vertex="1">
          <mxGeometry x="710" y="310" width="10" height="10" as="geometry" />
        </mxCell>
        <mxCell id="2yKHzwhFKuGk8CLsaB_d-182" value="&amp;nbsp;" style="html=1;whiteSpace=wrap;" parent="1" vertex="1">
          <mxGeometry x="1090" y="780" width="25" height="20" as="geometry" />
        </mxCell>
        <mxCell id="2yKHzwhFKuGk8CLsaB_d-183" value="" style="rounded=0;orthogonalLoop=1;jettySize=auto;html=1;endArrow=halfCircle;endFill=0;endSize=6;strokeWidth=1;sketch=0;fontSize=12;curved=1;entryX=0;entryY=0.5;entryDx=0;entryDy=0;exitX=1;exitY=0.5;exitDx=0;exitDy=0;" parent="1" source="2yKHzwhFKuGk8CLsaB_d-79" target="2yKHzwhFKuGk8CLsaB_d-182" edge="1">
          <mxGeometry relative="1" as="geometry">
            <mxPoint x="975" y="655" as="sourcePoint" />
          </mxGeometry>
        </mxCell>
        <mxCell id="2yKHzwhFKuGk8CLsaB_d-184" value="" style="ellipse;whiteSpace=wrap;html=1;align=center;aspect=fixed;fillColor=none;strokeColor=none;resizable=0;perimeter=centerPerimeter;rotatable=0;allowArrows=0;points=[];outlineConnect=1;" parent="1" vertex="1">
          <mxGeometry x="950" y="650" width="10" height="10" as="geometry" />
        </mxCell>
        <mxCell id="2yKHzwhFKuGk8CLsaB_d-185" value="&amp;nbsp;" style="html=1;whiteSpace=wrap;" parent="1" vertex="1">
          <mxGeometry x="215" y="295" width="25" height="20" as="geometry" />
        </mxCell>
        <mxCell id="2yKHzwhFKuGk8CLsaB_d-188" value="" style="rounded=0;orthogonalLoop=1;jettySize=auto;html=1;endArrow=halfCircle;endFill=0;endSize=6;strokeWidth=1;sketch=0;exitX=1;exitY=0.5;exitDx=0;exitDy=0;" parent="1" source="2yKHzwhFKuGk8CLsaB_d-8" edge="1">
          <mxGeometry relative="1" as="geometry">
            <mxPoint x="110" y="360" as="sourcePoint" />
            <mxPoint x="170" y="305" as="targetPoint" />
          </mxGeometry>
        </mxCell>
        <mxCell id="2yKHzwhFKuGk8CLsaB_d-189" value="" style="rounded=0;orthogonalLoop=1;jettySize=auto;html=1;endArrow=oval;endFill=0;sketch=0;sourcePerimeterSpacing=0;targetPerimeterSpacing=0;endSize=10;exitX=0;exitY=0.5;exitDx=0;exitDy=0;" parent="1" source="2yKHzwhFKuGk8CLsaB_d-185" edge="1">
          <mxGeometry relative="1" as="geometry">
            <mxPoint x="350" y="345" as="sourcePoint" />
            <mxPoint x="170" y="305" as="targetPoint" />
          </mxGeometry>
        </mxCell>
        <mxCell id="2yKHzwhFKuGk8CLsaB_d-190" value="" style="ellipse;whiteSpace=wrap;html=1;align=center;aspect=fixed;fillColor=none;strokeColor=none;resizable=0;perimeter=centerPerimeter;rotatable=0;allowArrows=0;points=[];outlineConnect=1;" parent="1" vertex="1">
          <mxGeometry x="365" y="340" width="10" height="10" as="geometry" />
        </mxCell>
        <mxCell id="2yKHzwhFKuGk8CLsaB_d-192" value="" style="ellipse;whiteSpace=wrap;html=1;aspect=fixed;rotation=-180;" parent="1" vertex="1">
          <mxGeometry x="260" y="440" width="10" height="10" as="geometry" />
        </mxCell>
        <mxCell id="2yKHzwhFKuGk8CLsaB_d-193" value="" style="endArrow=none;html=1;rounded=0;exitX=0.5;exitY=1;exitDx=0;exitDy=0;entryX=1;entryY=0.5;entryDx=0;entryDy=0;" parent="1" source="2yKHzwhFKuGk8CLsaB_d-192" target="2yKHzwhFKuGk8CLsaB_d-185" edge="1">
          <mxGeometry width="50" height="50" relative="1" as="geometry">
            <mxPoint x="590" y="310" as="sourcePoint" />
            <mxPoint x="640" y="260" as="targetPoint" />
            <Array as="points">
              <mxPoint x="265" y="305" />
            </Array>
          </mxGeometry>
        </mxCell>
        <mxCell id="2yKHzwhFKuGk8CLsaB_d-194" value="UserManagerI" style="text;html=1;strokeColor=none;fillColor=none;align=center;verticalAlign=middle;whiteSpace=wrap;rounded=0;" parent="1" vertex="1">
          <mxGeometry x="140" y="315" width="60" height="30" as="geometry" />
        </mxCell>
        <mxCell id="2yKHzwhFKuGk8CLsaB_d-195" value="&amp;nbsp;" style="html=1;whiteSpace=wrap;" parent="1" vertex="1">
          <mxGeometry x="1090" y="840" width="25" height="20" as="geometry" />
        </mxCell>
        <mxCell id="2yKHzwhFKuGk8CLsaB_d-196" value="" style="rounded=0;orthogonalLoop=1;jettySize=auto;html=1;endArrow=halfCircle;endFill=0;endSize=6;strokeWidth=1;sketch=0;fontSize=12;curved=1;exitX=1;exitY=0.5;exitDx=0;exitDy=0;" parent="1" source="2yKHzwhFKuGk8CLsaB_d-195" edge="1">
          <mxGeometry relative="1" as="geometry">
            <mxPoint x="655" y="795" as="sourcePoint" />
            <mxPoint x="1160" y="850" as="targetPoint" />
          </mxGeometry>
        </mxCell>
        <mxCell id="2yKHzwhFKuGk8CLsaB_d-197" value="" style="ellipse;whiteSpace=wrap;html=1;align=center;aspect=fixed;fillColor=none;strokeColor=none;resizable=0;perimeter=centerPerimeter;rotatable=0;allowArrows=0;points=[];outlineConnect=1;" parent="1" vertex="1">
          <mxGeometry x="630" y="790" width="10" height="10" as="geometry" />
        </mxCell>
        <mxCell id="2yKHzwhFKuGk8CLsaB_d-199" value="" style="rounded=0;orthogonalLoop=1;jettySize=auto;html=1;endArrow=halfCircle;endFill=0;endSize=6;strokeWidth=1;sketch=0;" parent="1" source="2yKHzwhFKuGk8CLsaB_d-45" target="2yKHzwhFKuGk8CLsaB_d-198" edge="1">
          <mxGeometry relative="1" as="geometry">
            <mxPoint x="1210" y="925" as="sourcePoint" />
            <mxPoint x="810" y="930" as="targetPoint" />
          </mxGeometry>
        </mxCell>
        <mxCell id="2yKHzwhFKuGk8CLsaB_d-198" value="&amp;nbsp;" style="html=1;whiteSpace=wrap;" parent="1" vertex="1">
          <mxGeometry x="1090" y="915" width="25" height="20" as="geometry" />
        </mxCell>
        <mxCell id="2yKHzwhFKuGk8CLsaB_d-200" value="&amp;nbsp;" style="html=1;whiteSpace=wrap;" parent="1" vertex="1">
          <mxGeometry x="215" y="620" width="25" height="20" as="geometry" />
        </mxCell>
        <mxCell id="2yKHzwhFKuGk8CLsaB_d-202" value="&amp;nbsp;" style="html=1;whiteSpace=wrap;" parent="1" vertex="1">
          <mxGeometry x="215" y="950" width="25" height="20" as="geometry" />
        </mxCell>
        <mxCell id="2yKHzwhFKuGk8CLsaB_d-204" value="&lt;div&gt;Battle&lt;/div&gt;&lt;div&gt;NotificationI&lt;br&gt;&lt;/div&gt;" style="text;html=1;align=center;verticalAlign=middle;resizable=0;points=[];autosize=1;strokeColor=none;fillColor=none;" parent="1" vertex="1">
          <mxGeometry x="905" y="-67" width="90" height="40" as="geometry" />
        </mxCell>
        <mxCell id="2yKHzwhFKuGk8CLsaB_d-205" value="&lt;div&gt;Invitation&lt;/div&gt;&lt;div&gt;NotificationI&lt;/div&gt;" style="text;html=1;align=center;verticalAlign=middle;resizable=0;points=[];autosize=1;strokeColor=none;fillColor=none;" parent="1" vertex="1">
          <mxGeometry x="915" y="-165" width="90" height="40" as="geometry" />
        </mxCell>
        <mxCell id="2yKHzwhFKuGk8CLsaB_d-206" value="&lt;div&gt;WebAppI&lt;/div&gt;" style="text;html=1;align=center;verticalAlign=middle;resizable=0;points=[];autosize=1;strokeColor=none;fillColor=none;" parent="1" vertex="1">
          <mxGeometry x="-70" y="260" width="70" height="30" as="geometry" />
        </mxCell>
        <mxCell id="dXc43B6teIdB0AjIhKot-1" value="CKB Notification System" style="text;html=1;strokeColor=none;fillColor=none;align=center;verticalAlign=middle;whiteSpace=wrap;rounded=0;" vertex="1" parent="1">
          <mxGeometry x="560" y="-240" width="270" height="30" as="geometry" />
        </mxCell>
        <mxCell id="dXc43B6teIdB0AjIhKot-3" value="Long Term&lt;br&gt;Data DBMS" style="shape=module;align=left;spacingLeft=20;align=center;verticalAlign=top;whiteSpace=wrap;html=1;" vertex="1" parent="1">
          <mxGeometry x="255" y="1340" width="180" height="80" as="geometry" />
        </mxCell>
        <mxCell id="dXc43B6teIdB0AjIhKot-4" value="&lt;div&gt;Short Term&lt;/div&gt;&lt;div&gt;Data DBMS&lt;br&gt;&lt;/div&gt;" style="shape=module;align=left;spacingLeft=20;align=center;verticalAlign=top;whiteSpace=wrap;html=1;" vertex="1" parent="1">
          <mxGeometry x="887.5" y="1340" width="170" height="80" as="geometry" />
        </mxCell>
        <mxCell id="dXc43B6teIdB0AjIhKot-5" value="&amp;nbsp;" style="html=1;whiteSpace=wrap;" vertex="1" parent="1">
          <mxGeometry x="332.5" y="1230" width="25" height="20" as="geometry" />
        </mxCell>
        <mxCell id="dXc43B6teIdB0AjIhKot-6" value="&amp;nbsp;" style="html=1;whiteSpace=wrap;" vertex="1" parent="1">
          <mxGeometry x="960" y="1230" width="25" height="20" as="geometry" />
        </mxCell>
        <mxCell id="dXc43B6teIdB0AjIhKot-12" value="" style="shape=requiredInterface;html=1;verticalLabelPosition=bottom;sketch=0;rotation=-90;" vertex="1" parent="1">
          <mxGeometry x="967.5" y="1210" width="10" height="20" as="geometry" />
        </mxCell>
        <mxCell id="dXc43B6teIdB0AjIhKot-15" value="" style="rounded=0;orthogonalLoop=1;jettySize=auto;html=1;endArrow=halfCircle;endFill=0;endSize=6;strokeWidth=1;sketch=0;exitX=0.5;exitY=1;exitDx=0;exitDy=0;" edge="1" target="dXc43B6teIdB0AjIhKot-17" parent="1" source="dXc43B6teIdB0AjIhKot-5">
          <mxGeometry relative="1" as="geometry">
            <mxPoint x="760" y="1085" as="sourcePoint" />
          </mxGeometry>
        </mxCell>
        <mxCell id="dXc43B6teIdB0AjIhKot-16" value="" style="rounded=0;orthogonalLoop=1;jettySize=auto;html=1;endArrow=oval;endFill=0;sketch=0;sourcePerimeterSpacing=0;targetPerimeterSpacing=0;endSize=10;exitX=0.5;exitY=0;exitDx=0;exitDy=0;" edge="1" target="dXc43B6teIdB0AjIhKot-17" parent="1" source="dXc43B6teIdB0AjIhKot-3">
          <mxGeometry relative="1" as="geometry">
            <mxPoint x="720" y="1085" as="sourcePoint" />
          </mxGeometry>
        </mxCell>
        <mxCell id="dXc43B6teIdB0AjIhKot-17" value="" style="ellipse;whiteSpace=wrap;html=1;align=center;aspect=fixed;fillColor=none;strokeColor=none;resizable=0;perimeter=centerPerimeter;rotatable=0;allowArrows=0;points=[];outlineConnect=1;" vertex="1" parent="1">
          <mxGeometry x="340" y="1290" width="10" height="10" as="geometry" />
        </mxCell>
        <mxCell id="dXc43B6teIdB0AjIhKot-19" value="" style="rounded=0;orthogonalLoop=1;jettySize=auto;html=1;endArrow=halfCircle;endFill=0;endSize=6;strokeWidth=1;sketch=0;exitX=0.5;exitY=1;exitDx=0;exitDy=0;" edge="1" target="dXc43B6teIdB0AjIhKot-21" parent="1" source="dXc43B6teIdB0AjIhKot-6">
          <mxGeometry relative="1" as="geometry">
            <mxPoint x="760" y="1085" as="sourcePoint" />
          </mxGeometry>
        </mxCell>
        <mxCell id="dXc43B6teIdB0AjIhKot-20" value="" style="rounded=0;orthogonalLoop=1;jettySize=auto;html=1;endArrow=oval;endFill=0;sketch=0;sourcePerimeterSpacing=0;targetPerimeterSpacing=0;endSize=10;exitX=0.5;exitY=0;exitDx=0;exitDy=0;" edge="1" target="dXc43B6teIdB0AjIhKot-21" parent="1" source="dXc43B6teIdB0AjIhKot-4">
          <mxGeometry relative="1" as="geometry">
            <mxPoint x="720" y="1085" as="sourcePoint" />
          </mxGeometry>
        </mxCell>
        <mxCell id="dXc43B6teIdB0AjIhKot-21" value="" style="ellipse;whiteSpace=wrap;html=1;align=center;aspect=fixed;fillColor=none;strokeColor=none;resizable=0;perimeter=centerPerimeter;rotatable=0;allowArrows=0;points=[];outlineConnect=1;" vertex="1" parent="1">
          <mxGeometry x="967.5" y="1290" width="10" height="10" as="geometry" />
        </mxCell>
        <mxCell id="dXc43B6teIdB0AjIhKot-24" value="" style="rounded=0;orthogonalLoop=1;jettySize=auto;html=1;endArrow=halfCircle;endFill=0;endSize=6;strokeWidth=1;sketch=0;fontSize=12;exitX=0.5;exitY=1;exitDx=0;exitDy=0;entryX=0.5;entryY=0;entryDx=0;entryDy=0;edgeStyle=orthogonalEdgeStyle;" edge="1" target="dXc43B6teIdB0AjIhKot-5" parent="1" source="2yKHzwhFKuGk8CLsaB_d-11">
          <mxGeometry relative="1" as="geometry">
            <mxPoint x="755" y="635" as="sourcePoint" />
            <mxPoint x="340" y="630" as="targetPoint" />
          </mxGeometry>
        </mxCell>
        <mxCell id="dXc43B6teIdB0AjIhKot-25" value="" style="ellipse;whiteSpace=wrap;html=1;align=center;aspect=fixed;fillColor=none;strokeColor=none;resizable=0;perimeter=centerPerimeter;rotatable=0;allowArrows=0;points=[];outlineConnect=1;" vertex="1" parent="1">
          <mxGeometry x="730" y="630" width="10" height="10" as="geometry" />
        </mxCell>
        <mxCell id="dXc43B6teIdB0AjIhKot-30" value="" style="rounded=0;orthogonalLoop=1;jettySize=auto;html=1;endArrow=halfCircle;endFill=0;endSize=6;strokeWidth=1;sketch=0;fontSize=12;exitX=0.25;exitY=1;exitDx=0;exitDy=0;edgeStyle=elbowEdgeStyle;elbow=vertical;" edge="1" parent="1" source="2yKHzwhFKuGk8CLsaB_d-89">
          <mxGeometry relative="1" as="geometry">
            <mxPoint x="665" y="575" as="sourcePoint" />
            <mxPoint x="650" y="470" as="targetPoint" />
            <Array as="points">
              <mxPoint x="670" y="430" />
            </Array>
          </mxGeometry>
        </mxCell>
        <mxCell id="dXc43B6teIdB0AjIhKot-31" value="" style="ellipse;whiteSpace=wrap;html=1;align=center;aspect=fixed;fillColor=none;strokeColor=none;resizable=0;perimeter=centerPerimeter;rotatable=0;allowArrows=0;points=[];outlineConnect=1;" vertex="1" parent="1">
          <mxGeometry x="640" y="570" width="10" height="10" as="geometry" />
        </mxCell>
        <mxCell id="dXc43B6teIdB0AjIhKot-32" value="" style="endArrow=open;endSize=12;dashed=1;html=1;rounded=0;entryX=0.5;entryY=0;entryDx=0;entryDy=0;edgeStyle=elbowEdgeStyle;elbow=vertical;" edge="1" parent="1" target="dXc43B6teIdB0AjIhKot-5">
          <mxGeometry width="160" relative="1" as="geometry">
            <mxPoint x="650" y="470" as="sourcePoint" />
            <mxPoint x="730" y="570" as="targetPoint" />
            <Array as="points">
              <mxPoint x="470" y="1070" />
            </Array>
          </mxGeometry>
        </mxCell>
        <mxCell id="dXc43B6teIdB0AjIhKot-33" value="&lt;div&gt;&lt;br&gt;&lt;/div&gt;&lt;div&gt;&lt;br&gt;&lt;/div&gt;" style="endArrow=open;endSize=12;dashed=1;html=1;rounded=0;entryX=0.861;entryY=0.999;entryDx=0;entryDy=0;entryPerimeter=0;" edge="1" parent="1" target="2yKHzwhFKuGk8CLsaB_d-164">
          <mxGeometry width="160" relative="1" as="geometry">
            <mxPoint x="650" y="1070" as="sourcePoint" />
            <mxPoint x="680" y="890" as="targetPoint" />
            <Array as="points">
              <mxPoint x="650" y="1140" />
              <mxPoint x="974" y="1140" />
            </Array>
          </mxGeometry>
        </mxCell>
        <mxCell id="dXc43B6teIdB0AjIhKot-34" value="" style="rounded=0;orthogonalLoop=1;jettySize=auto;html=1;endArrow=halfCircle;endFill=0;endSize=6;strokeWidth=1;sketch=0;fontSize=12;exitX=1;exitY=0.75;exitDx=0;exitDy=0;edgeStyle=elbowEdgeStyle;" edge="1" parent="1" source="2yKHzwhFKuGk8CLsaB_d-79">
          <mxGeometry relative="1" as="geometry">
            <mxPoint x="615" y="1025" as="sourcePoint" />
            <mxPoint x="840" y="810" as="targetPoint" />
            <Array as="points" />
          </mxGeometry>
        </mxCell>
        <mxCell id="dXc43B6teIdB0AjIhKot-35" value="" style="ellipse;whiteSpace=wrap;html=1;align=center;aspect=fixed;fillColor=none;strokeColor=none;resizable=0;perimeter=centerPerimeter;rotatable=0;allowArrows=0;points=[];outlineConnect=1;" vertex="1" parent="1">
          <mxGeometry x="590" y="1020" width="10" height="10" as="geometry" />
        </mxCell>
        <mxCell id="dXc43B6teIdB0AjIhKot-37" value="" style="endArrow=none;dashed=1;html=1;dashPattern=1 3;strokeWidth=2;rounded=0;" edge="1" parent="1">
          <mxGeometry width="50" height="50" relative="1" as="geometry">
            <mxPoint x="970" y="1140" as="sourcePoint" />
            <mxPoint x="840" y="810" as="targetPoint" />
            <Array as="points">
              <mxPoint x="970" y="810" />
            </Array>
          </mxGeometry>
        </mxCell>
        <mxCell id="dXc43B6teIdB0AjIhKot-38" value="" style="rounded=0;orthogonalLoop=1;jettySize=auto;html=1;endArrow=halfCircle;endFill=0;endSize=6;strokeWidth=1;sketch=0;fontSize=12;exitX=0.5;exitY=1;exitDx=0;exitDy=0;entryX=1.2;entryY=1.1;entryDx=0;entryDy=0;entryPerimeter=0;edgeStyle=elbowEdgeStyle;elbow=vertical;" edge="1" parent="1" source="2yKHzwhFKuGk8CLsaB_d-83">
          <mxGeometry relative="1" as="geometry">
            <mxPoint x="897.505" y="647.5" as="sourcePoint" />
            <mxPoint x="865.63" y="702.5" as="targetPoint" />
            <Array as="points">
              <mxPoint x="850" y="670" />
            </Array>
          </mxGeometry>
        </mxCell>
        <mxCell id="dXc43B6teIdB0AjIhKot-39" value="" style="ellipse;whiteSpace=wrap;html=1;align=center;aspect=fixed;fillColor=none;strokeColor=none;resizable=0;perimeter=centerPerimeter;rotatable=0;allowArrows=0;points=[];outlineConnect=1;" vertex="1" parent="1">
          <mxGeometry x="680" y="790" width="10" height="10" as="geometry" />
        </mxCell>
        <mxCell id="dXc43B6teIdB0AjIhKot-40" value="" style="endArrow=none;dashed=1;html=1;dashPattern=1 3;strokeWidth=2;rounded=0;" edge="1" parent="1">
          <mxGeometry width="50" height="50" relative="1" as="geometry">
            <mxPoint x="870" y="810" as="sourcePoint" />
            <mxPoint x="870" y="700" as="targetPoint" />
          </mxGeometry>
        </mxCell>
        <mxCell id="dXc43B6teIdB0AjIhKot-41" value="" style="rounded=0;orthogonalLoop=1;jettySize=auto;html=1;endArrow=halfCircle;endFill=0;endSize=6;strokeWidth=1;sketch=0;fontSize=12;exitX=0.75;exitY=1;exitDx=0;exitDy=0;edgeStyle=orthogonalEdgeStyle;" edge="1" parent="1" source="2yKHzwhFKuGk8CLsaB_d-24">
          <mxGeometry relative="1" as="geometry">
            <mxPoint x="755" y="845" as="sourcePoint" />
            <mxPoint x="510" y="860" as="targetPoint" />
          </mxGeometry>
        </mxCell>
        <mxCell id="dXc43B6teIdB0AjIhKot-42" value="" style="ellipse;whiteSpace=wrap;html=1;align=center;aspect=fixed;fillColor=none;strokeColor=none;resizable=0;perimeter=centerPerimeter;rotatable=0;allowArrows=0;points=[];outlineConnect=1;" vertex="1" parent="1">
          <mxGeometry x="730" y="840" width="10" height="10" as="geometry" />
        </mxCell>
        <mxCell id="dXc43B6teIdB0AjIhKot-44" value="" style="endArrow=none;dashed=1;html=1;dashPattern=1 3;strokeWidth=2;rounded=0;edgeStyle=elbowEdgeStyle;" edge="1" parent="1">
          <mxGeometry width="50" height="50" relative="1" as="geometry">
            <mxPoint x="350" y="1220" as="sourcePoint" />
            <mxPoint x="510" y="870" as="targetPoint" />
            <Array as="points">
              <mxPoint x="570" y="1030" />
            </Array>
          </mxGeometry>
        </mxCell>
        <mxCell id="dXc43B6teIdB0AjIhKot-45" value="" style="endArrow=none;dashed=1;html=1;dashPattern=1 3;strokeWidth=2;rounded=0;" edge="1" parent="1">
          <mxGeometry width="50" height="50" relative="1" as="geometry">
            <mxPoint x="510" y="870" as="sourcePoint" />
            <mxPoint x="510" y="860" as="targetPoint" />
          </mxGeometry>
        </mxCell>
        <mxCell id="dXc43B6teIdB0AjIhKot-47" value="" style="ellipse;whiteSpace=wrap;html=1;align=center;aspect=fixed;fillColor=none;strokeColor=none;resizable=0;perimeter=centerPerimeter;rotatable=0;allowArrows=0;points=[];outlineConnect=1;" vertex="1" parent="1">
          <mxGeometry x="640" y="930" width="10" height="10" as="geometry" />
        </mxCell>
        <mxCell id="dXc43B6teIdB0AjIhKot-49" value="LTDI" style="text;html=1;align=center;verticalAlign=middle;resizable=0;points=[];autosize=1;strokeColor=none;fillColor=none;" vertex="1" parent="1">
          <mxGeometry x="345" y="1278" width="50" height="30" as="geometry" />
        </mxCell>
        <mxCell id="dXc43B6teIdB0AjIhKot-50" value="&lt;div&gt;STDI&lt;/div&gt;" style="text;html=1;align=center;verticalAlign=middle;resizable=0;points=[];autosize=1;strokeColor=none;fillColor=none;" vertex="1" parent="1">
          <mxGeometry x="917.5" y="1280" width="50" height="30" as="geometry" />
        </mxCell>
      </root>
    </mxGraphModel>
  </diagram>
  <diagram id="6dt5Xh4oeFiF3r7IG_UF" name="Page-2">
    <mxGraphModel dx="1434" dy="822" grid="1" gridSize="10" guides="1" tooltips="1" connect="1" arrows="1" fold="1" page="1" pageScale="1" pageWidth="850" pageHeight="1100" math="0" shadow="0">
      <root>
        <mxCell id="0" />
        <mxCell id="1" parent="0" />
      </root>
    </mxGraphModel>
  </diagram>
</mxfile>
